<svg width="45" height="45" viewBox="0 0 45 45" fill="none" xmlns="http://www.w3.org/2000/svg">
<path d="M37.5 37.5H7.5C5.49472 37.56 3.81828 35.9875 3.75 33.9825V11.0156C3.81827 9.01084 5.49503 7.43888 7.5 7.49995H37.5C39.505 7.43888 41.1817 9.01084 41.25 11.0156V33.9843C41.1807 35.9886 39.5046 37.56 37.5 37.5ZM7.5 11.25V33.7293L37.5 33.75V11.2706L7.5 11.25ZM25.1813 30H11.25C11.3879 28.4476 12.1225 27.0092 13.2994 25.9875C14.6097 24.6875 16.3703 23.9422 18.2156 23.9062C20.061 23.9422 21.8216 24.6875 23.1319 25.9875C24.3084 27.0094 25.043 28.4477 25.1813 30ZM33.75 28.125H28.125V24.375H33.75V28.125ZM18.2156 22.5C17.2108 22.5349 16.2365 22.151 15.5255 21.44C14.8146 20.7291 14.4307 19.7548 14.4656 18.75C14.4313 17.7453 14.8153 16.7713 15.5262 16.0605C16.237 15.3496 17.2109 14.9656 18.2156 15C19.2203 14.9656 20.1942 15.3496 20.9051 16.0605C21.6159 16.7713 22 17.7453 21.9656 18.75C22.0005 19.7548 21.6167 20.7291 20.9057 21.44C20.1947 22.151 19.2205 22.5349 18.2156 22.5ZM33.75 20.625H26.25V16.875H33.75V20.625Z" fill="#2E3A59"/>
</svg>
