<svg width="45" height="45" viewBox="0 0 45 45" fill="none" xmlns="http://www.w3.org/2000/svg">
<path d="M22.5001 31.875C24.5626 31.875 26.2501 30.1875 26.2501 28.125C26.2501 26.0625 24.5626 24.375 22.5001 24.375C20.4376 24.375 18.7501 26.0625 18.7501 28.125C18.7501 30.1875 20.4376 31.875 22.5001 31.875ZM33.7501 15H31.8751V11.25C31.8751 6.075 27.6751 1.875 22.5001 1.875C17.3251 1.875 13.1251 6.075 13.1251 11.25V15H11.2501C9.18762 15 7.50012 16.6875 7.50012 18.75V37.5C7.50012 39.5625 9.18762 41.25 11.2501 41.25H33.7501C35.8126 41.25 37.5001 39.5625 37.5001 37.5V18.75C37.5001 16.6875 35.8126 15 33.7501 15ZM16.6876 11.25C16.6876 8.04375 19.2939 5.4375 22.5001 5.4375C25.7064 5.4375 28.3126 8.04375 28.3126 11.25V15H16.6876V11.25ZM33.7501 37.5H11.2501V18.75H33.7501V37.5Z" fill="#2E3A59"/>
</svg>
