<svg width="45" height="45" viewBox="0 0 45 45" fill="none" xmlns="http://www.w3.org/2000/svg">
<path d="M22.5 41.2501C19.6651 41.258 16.866 40.6166 14.3175 39.375C13.3847 38.9213 12.4911 38.3914 11.6456 37.7906L11.3887 37.6031C9.06337 35.8868 7.16222 33.6604 5.83121 31.095C4.45446 28.4398 3.74041 25.4909 3.74986 22.5C3.74986 12.1447 12.1446 3.75001 22.5 3.75001C32.8553 3.75001 41.25 12.1447 41.25 22.5C41.2594 25.4895 40.546 28.437 39.1706 31.0913C37.8414 33.6552 35.9429 35.8808 33.6206 37.5975C32.7445 38.2388 31.8148 38.8034 30.8418 39.285L30.6918 39.36C28.1417 40.6082 25.3392 41.2548 22.5 41.2501ZM22.5 31.875C19.6902 31.8695 17.1143 33.4388 15.8306 35.9381C20.0332 38.0197 24.9667 38.0197 29.1693 35.9381V35.9288C27.884 33.4322 25.308 31.8664 22.5 31.875ZM22.5 28.125C26.5614 28.1303 30.3064 30.319 32.3043 33.855L32.3325 33.8306L32.3587 33.8081L32.3268 33.8363L32.3081 33.8513C37.05 29.7546 38.7455 23.1419 36.5599 17.269C34.3743 11.396 28.7683 7.5006 22.5018 7.5006C16.2354 7.5006 10.6293 11.396 8.44374 17.269C6.25816 23.1419 7.95371 29.7546 12.6956 33.8513C14.6948 30.317 18.4394 28.1299 22.5 28.125ZM22.5 26.25C18.3578 26.25 15 22.8921 15 18.75C15 14.6079 18.3578 11.25 22.5 11.25C26.6421 11.25 30 14.6079 30 18.75C30 20.7391 29.2098 22.6468 27.8033 24.0533C26.3967 25.4598 24.4891 26.25 22.5 26.25ZM22.5 15C20.4289 15 18.75 16.6789 18.75 18.75C18.75 20.8211 20.4289 22.5 22.5 22.5C24.571 22.5 26.25 20.8211 26.25 18.75C26.25 16.6789 24.571 15 22.5 15Z" fill="#2E3A59"/>
</svg>
